<?xml version="1.0" encoding="utf-8" ?>
<svg baseProfile="tiny" height="474" version="1.2" width="474" xmlns="http://www.w3.org/2000/svg" xmlns:ev="http://www.w3.org/2001/xml-events" xmlns:xlink="http://www.w3.org/1999/xlink"><defs /><polyline fill="none" points="248,330 247,331 244,331 243,332 242,332 240,334 240,335 239,336 239,339 238,340 238,346 239,347 239,348 240,349 240,350 243,353 244,353 245,354 252,354 255,351 256,351 257,352 257,357 253,361 252,361 251,362 248,362 247,361 246,361 243,358 239,358 239,359 243,363 244,363 245,364 254,364 255,363 256,363 257,362 258,362 258,361 260,359 260,358 261,357 261,331 260,330 258,330 257,331 257,333 256,334 255,334 252,331 251,331 250,330" stroke="black" stroke-width="1" /><polyline fill="none" points="229,330 228,331 228,355 232,355 233,354 233,331 232,330" stroke="black" stroke-width="1" /><polyline fill="none" points="210,330 209,331 208,331 207,332 206,332 206,333 204,335 204,336 203,337 204,338 204,339 208,343 210,343 211,344 214,344 215,345 217,345 219,347 219,350 217,352 216,352 215,353 213,353 212,352 210,352 209,351 209,350 208,349 204,349 204,351 205,352 205,353 206,353 207,354 208,354 209,355 212,355 213,356 214,355 217,355 218,354 219,354 221,352 222,352 222,351 223,350 223,346 222,345 222,344 221,343 220,343 219,342 217,342 216,341 212,341 211,340 210,340 208,338 208,335 210,333 216,333 218,335 218,336 222,336 222,335 220,333 220,332 219,331 216,331 215,330" stroke="black" stroke-width="1" /><polyline fill="none" points="188,330 187,331 186,331 183,334 182,333 182,331 178,331 178,354 179,355 181,355 182,354 182,337 185,334 192,334 193,335 193,336 194,337 194,338 195,339 195,354 196,355 197,355 198,354 198,335 197,334 197,333 195,331 192,331 191,330" stroke="black" stroke-width="1" /><polyline fill="none" points="297,324 296,325 296,330 295,331 293,331 293,333 294,334 295,334 296,335 296,350 297,351 297,352 299,354 301,354 302,355 305,355 306,354 306,353 305,352 303,352 300,349 300,335 301,334 304,334 305,333 305,331 302,331 300,329 300,324" stroke="black" stroke-width="1" /><polyline fill="none" points="167,321 167,322 166,323 166,354 167,355 170,355 171,354 171,322 170,321" stroke="black" stroke-width="1" /><polyline fill="none" points="269,320 268,321 268,354 269,355 271,355 272,354 272,350 271,349 271,339 272,338 272,337 275,334 276,334 277,333 279,333 280,334 281,334 284,337 284,354 285,355 288,355 288,342 289,341 288,340 289,339 288,338 288,337 287,336 287,333 286,333 284,331 282,331 281,330 277,330 276,331 275,331 274,332 274,333 273,334 271,332 271,330 272,329 272,322 270,320" stroke="black" stroke-width="1" /><polyline fill="none" points="231,319 230,320 229,320 228,321 228,323 229,324 232,324 232,323 233,322 233,321" stroke="black" stroke-width="1" /><polyline fill="none" points="295,286 294,287 293,287 289,291 289,295 291,297 292,297 293,298 294,298 295,299 298,299 299,300 300,300 301,301 302,301 304,303 304,305 301,308 296,308 292,304 289,304 289,306 293,310 296,310 297,311 299,311 300,310 303,310 304,309 305,309 307,307 307,306 308,305 308,302 304,298 303,298 302,297 297,297 296,296 295,296 294,295 294,294 293,293 293,291 295,289 301,289 303,291 303,292 304,293 307,293 307,291 305,289 305,288 304,288 303,287 301,287 300,286" stroke="black" stroke-width="1" /><polyline fill="none" points="257,286 256,287 256,310 257,311 259,311 260,310 260,294 261,293 261,292 264,289 270,289 273,292 273,294 272,295 272,309 273,310 277,310 277,294 276,293 276,290 275,289 275,288 274,288 272,286 265,286 262,289 261,288 261,287 260,287 259,286" stroke="black" stroke-width="1" /><polyline fill="none" points="246,286 245,287 245,309 246,310 249,310 249,286" stroke="black" stroke-width="1" /><polyline fill="none" points="220,286 219,287 219,289 220,290 220,292 221,293 221,295 222,296 222,298 223,299 223,300 224,301 224,303 225,304 225,305 226,306 226,309 227,310 232,310 233,309 233,306 234,305 234,304 235,303 235,301 236,300 236,298 237,297 237,295 238,294 238,292 239,291 239,289 240,288 240,287 239,286 237,286 235,288 235,291 234,292 234,295 233,296 233,297 232,298 232,300 231,301 231,305 230,306 229,306 228,305 228,303 227,302 227,299 226,298 226,295 225,294 225,292 224,291 224,289 223,288 223,287 222,286" stroke="black" stroke-width="1" /><polyline fill="none" points="201,286 200,287 199,287 195,291 195,294 194,295 194,303 195,304 195,305 197,307 197,308 198,309 199,309 200,310 203,310 204,311 206,311 207,310 210,310 211,309 212,309 213,308 213,307 214,306 214,304 212,304 210,306 209,306 207,308 203,308 199,304 199,303 198,302 198,300 199,299 214,299 215,298 215,293 214,292 214,291 213,290 213,289 211,287 210,287 209,286" stroke="black" stroke-width="1" /><polyline fill="none" points="284,276 283,277 283,278 282,279 282,282 281,283 281,287 280,288 281,289 282,289 284,287 284,285 285,284 285,282 286,281 286,280 287,279 287,277 286,276" stroke="black" stroke-width="1" /><polyline fill="none" points="168,276 167,277 167,310 170,310 171,309 171,298 175,294 176,295 176,296 179,299 179,300 183,304 183,305 184,306 184,307 188,311 190,311 191,310 192,310 191,309 191,308 187,304 187,303 184,300 184,299 183,298 183,297 179,293 179,292 178,291 181,288 181,287 188,280 188,279 190,277 190,276 187,276 186,277 185,277 184,278 184,279 179,284 179,285 175,289 175,290 172,293 171,292 171,277 170,276" stroke="black" stroke-width="1" /><polyline fill="none" points="246,275 245,276 245,279 246,280 248,280 250,278 250,277 249,276 249,275" stroke="black" stroke-width="1" /><polyline fill="none" points="296,223 295,224 294,224 293,225 292,225 288,229 288,230 287,231 287,240 288,241 288,243 292,247 293,247 294,248 297,248 298,249 300,249 301,248 304,248 305,247 306,247 309,244 309,243 310,242 310,241 311,240 311,232 310,231 310,230 308,228 308,227 306,225 305,225 304,224 301,224 300,223" stroke="black" stroke-width="1" /><polyline fill="none" points="173,126 172,127 170,127 169,128 169,221 168,222 168,229 169,230 169,248 171,248 172,249 175,249 176,248 192,248 193,247 193,212 194,211 194,210 206,198 207,198 210,201 210,202 213,205 213,206 216,209 216,210 218,212 218,213 221,216 221,217 224,220 224,221 227,224 227,225 231,229 231,230 234,233 234,234 239,239 239,240 243,244 243,245 245,247 274,247 275,246 272,243 272,242 268,238 268,237 265,234 265,233 260,228 260,227 258,225 258,224 255,221 255,220 251,216 251,215 247,211 247,210 245,208 245,207 240,202 240,201 238,199 238,198 233,193 233,192 229,188 229,187 225,183 225,182 224,181 224,180 232,172 232,171 247,156 247,155 252,150 253,150 254,149 254,148 261,141 261,140 273,128 273,127 272,126 260,126 259,127 247,127 246,128 245,128 238,135 237,135 236,136 236,137 230,143 230,144 226,148 225,148 224,149 224,150 211,163 211,164 197,178 197,179 195,181 194,181 193,180 193,163 194,162 194,155 193,154 193,129 191,127 176,127 175,126" stroke="black" stroke-width="1" /></svg>